<?xml version="1.0" encoding="UTF-8"?>
<!DOCTYPE svg PUBLIC "-//W3C//DTD SVG 1.1//EN" "http://www.w3.org/Graphics/SVG/1.1/DTD/svg11.dtd">
<svg xmlns="http://www.w3.org/2000/svg" version="1.1" width="512px" height="512px" style="shape-rendering:geometricPrecision; text-rendering:geometricPrecision; image-rendering:optimizeQuality; fill-rule:evenodd; clip-rule:evenodd" xmlns:xlink="http://www.w3.org/1999/xlink">
<g><path style="opacity:0.957" fill="#000000" d="M -0.5,315.5 C -0.5,275.5 -0.5,235.5 -0.5,195.5C 4.52987,179.978 15.1965,171.145 31.5,169C 86.5,168.333 141.5,168.333 196.5,169C 220.497,172.674 231.497,186.674 229.5,211C 229.488,216.08 229.154,221.08 228.5,226C 221.5,226.667 214.5,226.667 207.5,226C 206.874,225.25 206.374,224.416 206,223.5C 205.667,215.833 205.333,208.167 205,200.5C 203.271,196.215 200.105,193.715 195.5,193C 141.5,192.333 87.5,192.333 33.5,193C 29.3827,193.806 26.216,195.973 24,199.5C 23.3333,236.833 23.3333,274.167 24,311.5C 26.216,315.027 29.3827,317.194 33.5,318C 87.5,318.667 141.5,318.667 195.5,318C 200.105,317.285 203.271,314.785 205,310.5C 205.06,302.064 205.727,293.731 207,285.5C 214.086,284.354 221.253,284.188 228.5,285C 229.651,294.756 229.818,304.589 229,314.5C 224.602,331.228 213.769,340.395 196.5,342C 141.5,342.667 86.5,342.667 31.5,342C 15.1965,339.855 4.52987,331.022 -0.5,315.5 Z"/></g>
<g><path style="opacity:0.957" fill="#000000" d="M 511.5,195.5 C 511.5,235.5 511.5,275.5 511.5,315.5C 506.47,331.022 495.803,339.855 479.5,342C 424.5,342.667 369.5,342.667 314.5,342C 290.503,338.326 279.503,324.326 281.5,300C 281.512,294.92 281.846,289.92 282.5,285C 289.5,284.333 296.5,284.333 303.5,285C 304.126,285.75 304.626,286.584 305,287.5C 305.333,295.167 305.667,302.833 306,310.5C 307.729,314.785 310.895,317.285 315.5,318C 369.5,318.667 423.5,318.667 477.5,318C 481.617,317.194 484.784,315.027 487,311.5C 487.667,274.167 487.667,236.833 487,199.5C 484.784,195.973 481.617,193.806 477.5,193C 423.5,192.333 369.5,192.333 315.5,193C 310.895,193.715 307.729,196.215 306,200.5C 305.94,208.936 305.273,217.269 304,225.5C 296.914,226.646 289.747,226.812 282.5,226C 281.349,216.244 281.182,206.411 282,196.5C 286.398,179.772 297.231,170.605 314.5,169C 369.5,168.333 424.5,168.333 479.5,169C 495.803,171.145 506.47,179.978 511.5,195.5 Z"/></g>
<g><path style="opacity:0.955" fill="#000000" d="M 144.5,243.5 C 218.501,243.333 292.501,243.5 366.5,244C 374.829,247.986 376.996,254.153 373,262.5C 371.269,264.617 369.102,266.117 366.5,267C 292.5,267.667 218.5,267.667 144.5,267C 136.158,262.974 133.992,256.807 138,248.5C 139.805,246.174 141.972,244.508 144.5,243.5 Z"/></g>
</svg>
