<?xml version="1.0" standalone="no"?>
<!DOCTYPE svg PUBLIC "-//W3C//DTD SVG 20010904//EN"
 "http://www.w3.org/TR/2001/REC-SVG-20010904/DTD/svg10.dtd">
<svg version="1.0" xmlns="http://www.w3.org/2000/svg"
 width="512.000000pt" height="512.000000pt" viewBox="0 0 512.000000 512.000000"
 preserveAspectRatio="xMidYMid meet">

<g transform="translate(0.000000,512.000000) scale(0.100000,-0.100000)"
fill="#000000" stroke="none">
<path d="M245 3406 c-56 -17 -80 -32 -127 -74 -52 -47 -82 -95 -102 -162 -24
-80 -24 -1140 0 -1220 29 -98 101 -181 193 -224 46 -21 51 -21 916 -24 652 -2
881 0 915 9 101 27 182 96 226 194 25 54 28 74 32 196 6 170 7 169 -117 169
-59 0 -92 -4 -99 -12 -5 -7 -12 -67 -14 -133 -4 -129 -11 -151 -59 -179 -24
-14 -111 -16 -859 -16 -922 0 -877 -3 -906 65 -21 51 -21 1079 0 1130 29 68
-16 65 906 65 748 0 835 -2 859 -16 48 -28 55 -50 59 -179 3 -96 7 -123 20
-132 10 -8 48 -13 98 -13 118 0 118 0 112 169 -4 122 -7 142 -32 196 -43 95
-118 161 -215 191 -64 19 -1744 20 -1806 0z"/>
<path d="M3064 3405 c-93 -29 -168 -97 -210 -190 -25 -54 -28 -74 -32 -196 -6
-169 -6 -169 112 -169 50 0 88 5 98 13 13 9 17 36 20 132 4 129 11 151 59 179
24 14 111 16 859 16 922 0 877 3 906 -65 21 -51 21 -1079 0 -1130 -29 -68 16
-65 -906 -65 -748 0 -835 2 -859 16 -48 28 -55 50 -59 179 -2 66 -9 126 -14
133 -7 8 -40 12 -99 12 -124 0 -123 1 -117 -169 4 -122 7 -142 32 -196 44 -98
125 -167 226 -194 34 -9 263 -11 915 -9 865 3 870 3 916 24 92 43 164 126 193
224 24 80 24 1140 0 1220 -29 98 -101 181 -193 224 -46 21 -50 21 -926 23
-700 1 -888 -1 -921 -12z"/>
<path d="M1453 2669 c-17 -5 -43 -23 -57 -40 -55 -65 -19 -159 69 -179 53 -13
2137 -13 2190 0 121 28 126 186 7 220 -47 13 -2163 12 -2209 -1z"/>
</g>
</svg>
